<svg width="14" height="14" viewBox="0 0 14 14" fill="none" xmlns="http://www.w3.org/2000/svg">
<path d="M6.29995 4.2C6.29995 4.75696 6.0787 5.2911 5.68488 5.68493C5.29105 6.07875 4.75691 6.3 4.19995 6.3C3.643 6.3 3.10885 6.07875 2.71503 5.68493C2.3212 5.2911 2.09995 4.75696 2.09995 4.2C2.09995 3.64305 2.3212 3.1089 2.71503 2.71508C3.10885 2.32125 3.643 2.1 4.19995 2.1C4.75691 2.1 5.29105 2.32125 5.68488 2.71508C6.0787 3.1089 6.29995 3.64305 6.29995 4.2ZM11.9 4.2C11.9 4.47578 11.8456 4.74885 11.7401 5.00364C11.6346 5.25842 11.4799 5.48992 11.2849 5.68493C11.0899 5.87993 10.8584 6.03461 10.6036 6.14015C10.3488 6.24568 10.0757 6.3 9.79995 6.3C9.52417 6.3 9.2511 6.24568 8.99632 6.14015C8.74153 6.03461 8.51003 5.87993 8.31503 5.68493C8.12002 5.48992 7.96534 5.25842 7.8598 5.00364C7.75427 4.74885 7.69995 4.47578 7.69995 4.2C7.69995 3.64305 7.9212 3.1089 8.31503 2.71508C8.70885 2.32125 9.243 2.1 9.79995 2.1C10.3569 2.1 10.891 2.32125 11.2849 2.71508C11.6787 3.1089 11.9 3.64305 11.9 4.2ZM9.05095 11.9C9.08315 11.6711 9.09995 11.438 9.09995 11.2C9.10157 10.1002 8.73156 9.03211 8.04995 8.169C8.58201 7.86182 9.18556 7.70009 9.79993 7.70009C10.4143 7.70009 11.0178 7.8618 11.5499 8.16898C12.082 8.47616 12.5238 8.91798 12.831 9.45003C13.1382 9.98209 13.2999 10.5856 13.3 11.2V11.9H9.05095ZM4.19995 7.7C5.12821 7.7 6.01845 8.06875 6.67482 8.72513C7.3312 9.38151 7.69995 10.2717 7.69995 11.2V11.9H0.699951V11.2C0.699951 10.2717 1.0687 9.38151 1.72508 8.72513C2.38145 8.06875 3.27169 7.7 4.19995 7.7Z" fill="#FF4B3E"/>
</svg>
