<svg width="17" height="17" viewBox="0 0 17 17" fill="none" xmlns="http://www.w3.org/2000/svg">
<path d="M2.83333 4.95833H11.3333C11.5212 4.95833 11.7014 5.03296 11.8342 5.1658C11.967 5.29864 12.0417 5.4788 12.0417 5.66667V8.85417C12.0417 9.32382 11.8551 9.77424 11.523 10.1063C11.1909 10.4384 10.7405 10.625 10.2708 10.625H9.91667C9.54094 10.625 9.18061 10.4757 8.91493 10.2101C8.64926 9.94439 8.5 9.58406 8.5 9.20833C8.5 8.83261 8.35074 8.47227 8.08507 8.2066C7.81939 7.94092 7.45906 7.79167 7.08333 7.79167C6.70761 7.79167 6.34728 7.94092 6.0816 8.2066C5.81592 8.47227 5.66667 8.83261 5.66667 9.20833C5.66667 9.58406 5.51741 9.94439 5.25173 10.2101C4.98606 10.4757 4.62572 10.625 4.25 10.625H3.89583C3.42618 10.625 2.97576 10.4384 2.64367 10.1063C2.31157 9.77424 2.125 9.32382 2.125 8.85417V5.66667C2.125 5.4788 2.19963 5.29864 2.33247 5.1658C2.4653 5.03296 2.64547 4.95833 2.83333 4.95833V4.95833Z" stroke="#FBBF24" stroke-width="1.4" stroke-linecap="round" stroke-linejoin="round"/>
<path d="M7.08337 12.0417C7.08337 12.4174 7.23263 12.7777 7.49831 13.0434C7.76398 13.3091 8.12432 13.4583 8.50004 13.4583H10.9792C12.0124 13.4583 13.0034 13.0479 13.734 12.3173C14.4646 11.5867 14.875 10.5957 14.875 9.5625V2.83333" stroke="#FBBF24" stroke-width="1.4" stroke-linecap="round" stroke-linejoin="round"/>
</svg>
